<?xml version="1.0" encoding="UTF-8"?>
<svg id="Capa_1" data-name="Capa 1" xmlns="http://www.w3.org/2000/svg" viewBox="0 0 702.76 567.47">
  <defs>
    <style>
      .cls-1 {
        fill: #e4af96;
      }
    </style>
  </defs>
  <path class="cls-1" d="M466.64,222.01l-109.94-63.44c-2.2-1.27-4.99-.9-6.78.9l-121.28,122.01c-4.01,4.03-.16,10.78,5.35,9.39l231.22-58.57c4.88-1.24,5.78-7.77,1.43-10.29Z"/>
  <path class="cls-1" d="M475.03,247.64l.74,33.85c.06,2.6-1.6,4.91-3.99,5.56l-234.09,63.63c-3.13.85-6.24-1.4-6.62-4.78l-4.05-36.78c-.31-2.81,1.42-5.43,4.03-6.09l237.4-60.7c3.3-.84,6.5,1.74,6.58,5.32Z"/>
  <path class="cls-1" d="M475.04,306.44l.73,33.85c.06,2.6-1.56,4.91-3.91,5.56l-229.31,63.63c-3.06.85-6.12-1.4-6.48-4.78l-3.97-36.78c-.3-2.81,1.39-5.43,3.95-6.09l232.55-60.7c3.23-.84,6.36,1.74,6.44,5.32Z"/>
</svg>