<?xml version="1.0" encoding="UTF-8"?>
<svg id="Capa_1" data-name="Capa 1" xmlns="http://www.w3.org/2000/svg" viewBox="0 0 702.76 567.47">
  <defs>
    <style>
      .cls-1 {
        fill: #e4af96;
      }
    </style>
  </defs>
  <g>
    <path class="cls-1" d="M173.59,432.68c-.18,0-.32-.02-.42-.07-.11-.05-.18-.13-.22-.24-.04-.11-.06-.26-.06-.44v-15.44c0-.16.03-.29.08-.39.06-.1.14-.17.24-.23.1-.06.24-.08.4-.08h5.49c.86,0,1.6.11,2.24.34.64.23,1.17.56,1.61.99.44.44.76.98.98,1.63s.33,1.41.33,2.26c0,.5-.08,1.05-.24,1.65-.16.6-.41,1.16-.75,1.69-.34.53-.79.97-1.34,1.31-.56.34-1.24.51-2.05.51h-5.57v5.78c0,.18-.02.32-.07.42-.05.1-.13.18-.23.23-.11.05-.25.07-.42.07ZM174.31,424.79h5.52c.44,0,.83-.08,1.2-.24.36-.16.68-.4.94-.73.27-.32.48-.72.63-1.19.15-.47.23-1.02.23-1.65,0-.82-.14-1.51-.42-2.07-.28-.56-.7-.98-1.26-1.26-.56-.28-1.26-.42-2.09-.42h-4.74v7.55ZM184.04,432.51c-.21.11-.4.14-.57.07-.17-.06-.31-.2-.42-.41l-3.68-6.24,1.5-.27,3.46,5.76c.11.18.18.33.19.46.02.13-.02.24-.1.34-.08.1-.21.19-.39.29Z"/>
    <path class="cls-1" d="M197.91,432.73c-.89,0-1.7-.15-2.43-.44-.73-.29-1.36-.7-1.89-1.23-.52-.53-.93-1.16-1.22-1.89-.29-.73-.44-1.53-.44-2.42,0-1.05.25-1.99.75-2.83.5-.84,1.19-1.5,2.08-2,.89-.49,1.9-.74,3.05-.74.74,0,1.42.11,2.03.34.61.23,1.15.53,1.6.92.45.39.8.83,1.05,1.33.25.5.38,1.02.38,1.55,0,.79-.18,1.33-.54,1.61-.36.28-.8.42-1.32.42h-7.62c-.03.86.18,1.59.64,2.2.46.61,1.04,1.09,1.74,1.42.7.33,1.41.5,2.12.5.47,0,.87-.02,1.22-.07.35-.05.65-.12.9-.21.25-.09.46-.18.64-.27.18-.09.34-.18.48-.27.15-.09.28-.16.41-.21.08-.03.17-.04.28-.04.1,0,.18.05.23.13.08.11.14.21.17.3.03.09.05.19.05.3,0,.15-.19.34-.58.59-.39.25-.91.48-1.57.68-.66.2-1.4.3-2.2.3ZM193.39,426.19h7.21c.32,0,.57-.04.75-.11.18-.07.27-.31.27-.71,0-.53-.17-1.02-.5-1.46-.33-.44-.78-.8-1.34-1.08-.56-.27-1.21-.41-1.94-.41-.81,0-1.55.16-2.24.48-.69.32-1.23.77-1.63,1.34-.4.57-.6,1.22-.58,1.95Z"/>
    <path class="cls-1" d="M211.1,437.3c-.18,0-.32-.02-.42-.07-.11-.05-.18-.13-.23-.23-.05-.11-.07-.25-.07-.42v-14.69c0-.19.02-.34.06-.45.04-.1.11-.18.22-.23.1-.05.25-.07.42-.07.27,0,.46.05.57.16.1.11.16.29.16.57v14.69c0,.18-.02.32-.06.44-.04.11-.11.19-.22.24-.11.05-.25.07-.42.07ZM216.31,432.63c-.79,0-1.52-.14-2.18-.41-.66-.27-1.23-.67-1.72-1.19-.48-.52-.86-1.13-1.13-1.84-.27-.71-.4-1.5-.4-2.37s.13-1.66.4-2.36c.27-.7.64-1.31,1.13-1.82.48-.51,1.06-.9,1.72-1.17.66-.27,1.39-.41,2.18-.41s1.46.14,2.11.41c.65.27,1.21.67,1.69,1.19.48.52.86,1.13,1.14,1.85.27.72.41,1.51.41,2.38s-.14,1.63-.41,2.34c-.27.7-.65,1.31-1.14,1.82-.48.51-1.05.9-1.69,1.17-.65.27-1.35.41-2.11.41ZM216.09,431.35c.81,0,1.53-.19,2.17-.57.64-.38,1.14-.91,1.51-1.6.37-.69.56-1.47.56-2.36s-.19-1.69-.56-2.36c-.37-.67-.88-1.19-1.51-1.56-.64-.37-1.36-.56-2.17-.56s-1.5.19-2.14.57c-.64.38-1.14.9-1.51,1.57-.37.67-.56,1.45-.56,2.34s.19,1.67.56,2.36c.37.69.88,1.22,1.51,1.6.64.38,1.35.57,2.14.57Z"/>
    <path class="cls-1" d="M234.65,432.77c-.81,0-1.57-.15-2.28-.46-.71-.31-1.34-.73-1.88-1.26-.54-.53-.96-1.15-1.27-1.86-.31-.71-.46-1.47-.46-2.28s.15-1.59.45-2.29c.3-.7.72-1.32,1.26-1.86.54-.54,1.16-.96,1.86-1.26.7-.3,1.46-.45,2.26-.45,1.08,0,2.06.25,2.93.76.87.51,1.56,1.2,2.08,2.08.52.88.77,1.88.77,2.99,0,.84-.15,1.61-.45,2.32-.3.71-.71,1.33-1.23,1.86-.52.53-1.13.95-1.83,1.25-.69.3-1.44.45-2.23.45ZM234.61,431.47c.82,0,1.57-.21,2.24-.62.67-.41,1.2-.97,1.6-1.67.4-.7.59-1.48.59-2.34s-.19-1.65-.58-2.32c-.39-.68-.92-1.21-1.59-1.59-.67-.38-1.43-.57-2.29-.57s-1.59.2-2.26.59c-.67.4-1.2.93-1.6,1.61-.4.68-.59,1.44-.59,2.3s.2,1.65.59,2.35c.4.69.93,1.24,1.61,1.65.68.4,1.44.61,2.28.61Z"/>
    <path class="cls-1" d="M251.67,432.75c-.37,0-.75-.04-1.13-.11-.38-.07-.74-.18-1.09-.31-.35-.14-.67-.3-.96-.48-.29-.19-.52-.39-.7-.62-.11-.16-.19-.3-.24-.41-.05-.11-.05-.22-.01-.31.04-.1.12-.19.23-.27.18-.19.35-.27.51-.24.16.03.37.19.63.46.15.16.33.31.56.45.23.14.47.25.73.35.26.1.52.17.77.22.26.05.5.07.73.07.89,0,1.61-.17,2.15-.52.55-.35.82-.82.82-1.42,0-.31-.06-.58-.17-.81-.11-.23-.27-.43-.46-.59-.19-.16-.42-.3-.67-.42-.25-.12-.52-.23-.82-.31-.3-.09-.6-.17-.91-.25-.45-.11-.9-.24-1.34-.38-.44-.14-.84-.31-1.2-.52-.36-.21-.64-.48-.86-.82-.22-.34-.33-.77-.33-1.31,0-.61.16-1.15.47-1.6.31-.45.75-.81,1.32-1.06.56-.26,1.22-.39,1.96-.39.37,0,.72.03,1.04.08.32.06.63.14.91.25.28.11.55.25.8.4.25.15.48.34.69.54.19.18.3.34.31.48.02.15-.04.3-.17.46-.15.16-.3.25-.46.28s-.33-.05-.51-.23c-.26-.26-.53-.46-.81-.62-.28-.15-.57-.27-.87-.35-.3-.08-.61-.12-.93-.12-.47,0-.89.08-1.26.23-.37.15-.66.37-.86.65-.2.28-.3.61-.3.98,0,.27.07.5.21.69.14.19.32.34.54.47.23.13.49.24.8.34.31.1.63.19.97.29.48.13.98.27,1.48.42.5.15.96.36,1.37.61.41.25.75.58,1,.98.26.4.39.93.39,1.57,0,.97-.41,1.74-1.22,2.32-.81.58-1.85.87-3.11.87Z"/>
    <path class="cls-1" d="M263.75,421.45l2.15.05,3.36-.05c.18,0,.32.02.42.06.1.04.18.11.23.21.05.1.07.23.07.39,0,.18-.02.32-.06.42-.04.11-.11.18-.21.22-.1.04-.23.06-.41.06l-3.41-.05-2.2.05c-.26,0-.44-.05-.53-.16-.1-.1-.15-.29-.15-.54,0-.24.06-.41.17-.51.11-.1.3-.15.56-.15ZM269.12,432.68c-.73,0-1.34-.06-1.83-.19-.49-.13-.89-.33-1.2-.61-.31-.27-.52-.64-.65-1.1-.13-.46-.19-1.03-.19-1.71v-11.13c0-.19.02-.34.06-.45.04-.1.11-.18.21-.23s.23-.07.39-.07c.18,0,.32.02.42.06.1.04.18.11.23.21.05.1.07.23.07.41v11.26c0,.5.04.9.13,1.2.09.3.23.52.41.67.19.15.44.24.76.28.32.04.71.06,1.16.06.19,0,.34.02.45.06.1.04.18.11.23.21.05.1.07.23.07.41s-.02.31-.07.41c-.05.1-.13.17-.23.21-.11.04-.25.06-.42.06Z"/>
    <path class="cls-1" d="M282.75,432.73c-.89,0-1.7-.15-2.43-.44-.73-.29-1.36-.7-1.89-1.23-.52-.53-.93-1.16-1.22-1.89-.29-.73-.44-1.53-.44-2.42,0-1.05.25-1.99.75-2.83.5-.84,1.19-1.5,2.08-2,.89-.49,1.9-.74,3.05-.74.74,0,1.42.11,2.03.34.61.23,1.15.53,1.6.92.45.39.8.83,1.05,1.33.25.5.38,1.02.38,1.55,0,.79-.18,1.33-.54,1.61-.36.28-.8.42-1.32.42h-7.62c-.03.86.18,1.59.64,2.2.46.61,1.04,1.09,1.74,1.42.7.33,1.41.5,2.12.5.47,0,.87-.02,1.22-.07.35-.05.65-.12.9-.21.25-.09.46-.18.64-.27.18-.09.34-.18.48-.27.15-.09.28-.16.41-.21.08-.03.17-.04.28-.04.1,0,.18.05.23.13.08.11.14.21.17.3.03.09.05.19.05.3,0,.15-.19.34-.58.59-.39.25-.91.48-1.57.68-.66.2-1.4.3-2.2.3ZM278.22,426.19h7.21c.32,0,.57-.04.75-.11.18-.07.27-.31.27-.71,0-.53-.17-1.02-.5-1.46-.33-.44-.78-.8-1.34-1.08-.56-.27-1.21-.41-1.94-.41-.81,0-1.55.16-2.24.48-.69.32-1.23.77-1.63,1.34-.4.57-.6,1.22-.58,1.95Z"/>
    <path class="cls-1" d="M296.11,432.68c-.16,0-.29-.02-.39-.07s-.17-.13-.21-.24c-.04-.11-.06-.26-.06-.44v-10.09c0-.19.02-.34.06-.45.04-.1.11-.17.21-.21.1-.03.23-.05.41-.05.16,0,.29.02.4.05.1.03.18.1.23.21.05.11.07.25.07.45v1.02c.16-.27.32-.52.48-.75.16-.23.35-.42.58-.59.23-.17.5-.3.84-.4.33-.1.75-.15,1.25-.15.26,0,.5.02.71.07.22.05.42.11.61.19.19.08.34.17.47.27.13.1.23.19.29.29.06.1.1.19.1.29,0,.21-.09.39-.27.53-.18.15-.34.22-.48.22-.18,0-.31-.03-.4-.08-.09-.06-.18-.12-.28-.21-.1-.08-.24-.15-.44-.21-.19-.06-.49-.08-.9-.08-.24,0-.51.05-.8.16-.29.11-.57.26-.84.47-.27.21-.49.48-.67.82-.18.34-.27.74-.27,1.21v7.07c0,.18-.02.32-.06.42-.04.1-.11.18-.22.22-.11.04-.25.06-.45.06Z"/>
    <path class="cls-1" d="M309.93,419.17c-.24.08-.42.1-.54.05-.12-.05-.22-.19-.3-.44-.08-.23-.09-.4-.04-.53.06-.13.19-.23.4-.31l3.68-1.28c.23-.08.4-.09.53-.02.13.06.23.22.29.46.08.23.09.4.02.52-.06.12-.21.22-.44.3l-3.61,1.26ZM310.34,432.68c-.16,0-.29-.02-.4-.07-.11-.05-.18-.13-.22-.23-.04-.1-.06-.25-.06-.42v-10.12c0-.18.02-.32.06-.42.04-.1.11-.18.22-.22.1-.04.25-.06.42-.06s.31.02.41.07c.1.05.17.13.21.23.04.11.06.25.06.45v10.09c0,.18-.02.32-.06.42-.04.1-.11.18-.22.22-.11.04-.25.06-.42.06Z"/>
    <path class="cls-1" d="M329.27,432.65c-.23,0-.39-.06-.48-.17-.1-.11-.16-.32-.19-.63v-1.62c-.18.31-.46.65-.83,1.03-.38.38-.87.71-1.48.99-.61.28-1.34.42-2.19.42-.79,0-1.52-.15-2.19-.45-.67-.3-1.26-.71-1.75-1.25-.5-.53-.89-1.15-1.17-1.85-.28-.7-.42-1.46-.42-2.29s.14-1.53.42-2.21c.28-.69.68-1.29,1.19-1.82.51-.52,1.1-.94,1.77-1.23.67-.3,1.39-.45,2.17-.45s1.41.1,1.95.29c.54.19,1.02.46,1.43.8.41.34.79.73,1.13,1.19v-1.38c0-.32.05-.55.16-.69.1-.14.29-.21.54-.21.16,0,.29.03.38.08.09.06.15.15.19.28.04.13.06.31.06.53v9.83c0,.19-.02.35-.06.47s-.11.21-.21.25c-.1.05-.23.07-.39.07ZM324.36,431.42c.77,0,1.48-.2,2.11-.59.63-.4,1.13-.93,1.5-1.61.37-.68.56-1.45.56-2.32,0-.92-.19-1.72-.58-2.4-.39-.68-.9-1.21-1.54-1.59-.64-.38-1.34-.57-2.09-.57-.89,0-1.66.2-2.32.61-.66.4-1.18.95-1.55,1.63-.37.69-.56,1.47-.56,2.36s.19,1.62.56,2.3c.37.68.9,1.21,1.57,1.6s1.46.58,2.35.58Z"/>
    <path class="cls-1" d="M353.35,432.68c-1.03,0-1.92-.17-2.65-.51-.73-.34-1.3-.84-1.69-1.49s-.59-1.43-.59-2.34c0-.48.13-.99.39-1.52.26-.53.63-1.07,1.13-1.62.49-.55,1.08-1.08,1.75-1.6-.26-.48-.49-.98-.69-1.48-.2-.5-.36-.99-.46-1.48-.11-.48-.16-.95-.16-1.4,0-.76.18-1.42.53-1.98.35-.56.86-1,1.5-1.32.65-.31,1.4-.47,2.28-.47.74,0,1.39.14,1.94.42.55.28.98.68,1.28,1.19.31.51.46,1.1.46,1.78,0,.29-.12.62-.35.99-.23.37-.56.77-.99,1.21-.43.44-.93.9-1.51,1.4-.58.5-1.23,1.03-1.94,1.6.48.74.99,1.44,1.52,2.11.53.66,1.08,1.25,1.63,1.78.56.52,1.08.96,1.59,1.32.79-.6,1.33-1.15,1.61-1.65.28-.5.47-1,.57-1.5.03-.13.1-.25.22-.38.11-.12.35-.18.7-.18.15,0,.27.03.36.1.1.06.17.15.23.25.06.11.08.22.06.35-.03.63-.28,1.26-.74,1.9-.46.64-1.09,1.29-1.88,1.95.32.11.61.21.87.29.26.08.56.14.9.18.34.04.77.06,1.31.06.27,0,.46.04.54.13.09.09.13.28.13.57,0,.36-.05.59-.15.7-.1.11-.28.17-.56.17-.47,0-.94-.03-1.43-.1-.48-.06-.97-.18-1.45-.35-.48-.17-.98-.4-1.5-.69-.44.32-.92.6-1.44.85-.52.24-1.07.43-1.63.56-.57.13-1.13.19-1.69.19ZM353.3,431.18c.69,0,1.36-.09,2-.28.64-.19,1.17-.43,1.61-.74-.32-.29-.68-.63-1.07-1-.39-.38-.78-.8-1.19-1.26-.4-.46-.8-.94-1.2-1.45-.4-.51-.77-1.03-1.13-1.56-.44.39-.81.73-1.11,1.04-.31.31-.55.59-.74.84-.19.25-.32.5-.4.76-.08.26-.12.53-.12.82,0,.58.14,1.09.41,1.51.27.43.66.75,1.16.98.5.23,1.09.34,1.77.34ZM352.89,422.87c.6-.45,1.14-.88,1.63-1.27.49-.4.91-.76,1.26-1.1.35-.34.62-.65.81-.94.19-.29.29-.54.29-.75,0-.63-.2-1.14-.61-1.54-.4-.4-.94-.59-1.6-.59-.58,0-1.09.11-1.53.31-.44.21-.77.5-1.02.86-.24.36-.36.79-.36,1.29,0,.32.04.66.12,1,.08.35.2.74.36,1.17.16.44.37.95.63,1.55Z"/>
    <path class="cls-1" d="M383.46,432.68c-.18,0-.32-.02-.42-.07-.11-.05-.18-.13-.22-.24-.04-.11-.06-.26-.06-.44v-15.42c0-.16.03-.29.08-.4.06-.1.14-.19.25-.24s.24-.08.39-.08h5.45c.82,0,1.55.12,2.19.35.64.23,1.18.58,1.62,1.04s.78,1.01,1.02,1.66c.23.65.35,1.38.35,2.2s-.12,1.55-.35,2.19c-.23.64-.58,1.18-1.03,1.63-.45.45-1,.8-1.63,1.03-.64.23-1.37.35-2.19.35h-4.7v5.71c0,.18-.02.32-.07.42-.05.1-.13.18-.23.23-.11.05-.25.07-.45.07ZM384.21,424.79h4.72c.79,0,1.46-.15,2.02-.45.56-.3.98-.73,1.28-1.31.3-.57.45-1.25.45-2.05s-.15-1.46-.45-2.02c-.3-.56-.73-.98-1.29-1.28-.57-.3-1.24-.45-2.03-.45h-4.7v7.55Z"/>
    <path class="cls-1" d="M412.07,432.65c-.23,0-.39-.06-.48-.17-.1-.11-.16-.32-.19-.63v-1.62c-.18.31-.46.65-.83,1.03-.38.38-.87.71-1.48.99-.61.28-1.34.42-2.19.42-.79,0-1.52-.15-2.19-.45-.67-.3-1.26-.71-1.75-1.25-.5-.53-.89-1.15-1.17-1.85-.28-.7-.42-1.46-.42-2.29s.14-1.53.42-2.21c.28-.69.68-1.29,1.19-1.82.51-.52,1.1-.94,1.77-1.23.67-.3,1.39-.45,2.17-.45s1.41.1,1.95.29c.54.19,1.02.46,1.43.8.41.34.79.73,1.13,1.19v-1.38c0-.32.05-.55.16-.69.1-.14.29-.21.54-.21.16,0,.29.03.38.08.09.06.15.15.19.28.04.13.06.31.06.53v9.83c0,.19-.02.35-.06.47s-.11.21-.21.25c-.1.05-.23.07-.39.07ZM407.16,431.42c.77,0,1.48-.2,2.11-.59.63-.4,1.13-.93,1.5-1.61.37-.68.56-1.45.56-2.32,0-.92-.19-1.72-.58-2.4-.39-.68-.9-1.21-1.54-1.59-.64-.38-1.34-.57-2.09-.57-.89,0-1.66.2-2.32.61-.66.4-1.18.95-1.55,1.63-.37.69-.56,1.47-.56,2.36s.19,1.62.56,2.3c.37.68.9,1.21,1.57,1.6s1.46.58,2.35.58Z"/>
    <path class="cls-1" d="M421.61,432.65c-.16,0-.29-.02-.39-.07s-.17-.13-.21-.23c-.04-.1-.06-.25-.06-.42v-10.17c0-.16.02-.29.06-.38.04-.09.11-.15.22-.19.1-.04.24-.06.4-.06.11,0,.21.01.29.04.08.02.15.06.19.11.05.05.08.11.11.19.02.08.04.18.04.29v1.43c.21-.27.44-.54.7-.79.26-.25.54-.48.86-.68.31-.2.66-.36,1.04-.47.38-.11.8-.17,1.27-.17.69,0,1.33.12,1.92.35.59.23,1.1.57,1.54,1.02.44.44.77.98,1.02,1.62.24.64.36,1.37.36,2.19v5.69c0,.18-.02.32-.06.42-.04.1-.11.18-.21.22-.1.04-.23.06-.41.06s-.32-.02-.42-.07c-.11-.05-.18-.13-.22-.23-.04-.1-.06-.25-.06-.42v-5.69c0-.79-.13-1.48-.39-2.06-.26-.58-.65-1.03-1.16-1.36-.52-.32-1.17-.48-1.96-.48s-1.44.16-2.01.48c-.56.32-1,.77-1.31,1.36-.31.58-.46,1.27-.46,2.06v5.71c0,.18-.02.32-.06.42-.04.1-.11.18-.22.22-.11.04-.25.06-.42.06Z"/>
    <path class="cls-1" d="M449.2,432.65c-.23,0-.39-.06-.48-.17-.1-.11-.16-.32-.19-.63v-1.62c-.18.31-.46.65-.83,1.03-.38.38-.87.71-1.48.99-.61.28-1.34.42-2.19.42-.79,0-1.52-.15-2.19-.45-.67-.3-1.26-.71-1.75-1.25-.5-.53-.89-1.15-1.17-1.85-.28-.7-.42-1.46-.42-2.29s.14-1.53.42-2.21c.28-.69.68-1.29,1.19-1.82.51-.52,1.1-.94,1.77-1.23.67-.3,1.39-.45,2.17-.45s1.41.1,1.95.29c.54.19,1.02.46,1.43.8.41.34.79.73,1.13,1.19v-1.38c0-.32.05-.55.16-.69.1-.14.29-.21.54-.21.16,0,.29.03.38.08.09.06.15.15.19.28.04.13.06.31.06.53v9.83c0,.19-.02.35-.06.47s-.11.21-.21.25c-.1.05-.23.07-.39.07ZM444.29,431.42c.77,0,1.48-.2,2.11-.59.63-.4,1.13-.93,1.5-1.61.37-.68.56-1.45.56-2.32,0-.92-.19-1.72-.58-2.4-.39-.68-.9-1.21-1.54-1.59-.64-.38-1.34-.57-2.09-.57-.89,0-1.66.2-2.32.61-.66.4-1.18.95-1.55,1.63-.37.69-.56,1.47-.56,2.36s.19,1.62.56,2.3c.37.68.9,1.21,1.57,1.6s1.46.58,2.35.58Z"/>
    <path class="cls-1" d="M463.07,432.68c-.74,0-1.44-.14-2.09-.41-.65-.27-1.22-.67-1.71-1.19-.48-.52-.86-1.13-1.14-1.85-.27-.72-.41-1.51-.41-2.38s.14-1.63.41-2.34c.27-.7.65-1.31,1.14-1.82.48-.51,1.05-.9,1.71-1.17.65-.27,1.35-.41,2.09-.41.79,0,1.52.14,2.18.41.66.27,1.23.67,1.72,1.19.48.52.86,1.13,1.13,1.84.27.71.4,1.5.4,2.37s-.13,1.66-.4,2.36c-.27.7-.64,1.31-1.13,1.82-.48.51-1.06.9-1.72,1.17-.66.27-1.39.41-2.18.41ZM463.29,431.39c.81,0,1.52-.19,2.15-.57.63-.38,1.13-.9,1.5-1.57.37-.67.56-1.45.56-2.34s-.19-1.69-.56-2.37c-.37-.68-.88-1.21-1.51-1.59-.64-.38-1.35-.57-2.14-.57s-1.51.19-2.15.57c-.65.38-1.15.91-1.52,1.59-.37.68-.56,1.47-.56,2.37s.19,1.67.56,2.34c.37.67.88,1.19,1.52,1.57.65.38,1.36.57,2.15.57ZM468.27,432.68c-.26,0-.44-.06-.54-.17-.11-.11-.16-.3-.16-.56v-15.42c0-.19.02-.34.06-.45.04-.1.11-.18.22-.23.1-.05.24-.07.4-.07.18,0,.31.02.41.07.1.05.17.13.22.23.05.11.07.25.07.42v15.42c0,.18-.02.32-.06.44-.04.11-.11.19-.21.24s-.23.07-.41.07Z"/>
    <path class="cls-1" d="M482.6,432.73c-.89,0-1.7-.15-2.43-.44-.73-.29-1.36-.7-1.89-1.23-.52-.53-.93-1.16-1.22-1.89-.29-.73-.44-1.53-.44-2.42,0-1.05.25-1.99.75-2.83.5-.84,1.19-1.5,2.08-2,.89-.49,1.9-.74,3.05-.74.74,0,1.42.11,2.03.34.61.23,1.15.53,1.6.92.45.39.8.83,1.05,1.33.25.5.38,1.02.38,1.55,0,.79-.18,1.33-.54,1.61-.36.28-.8.42-1.32.42h-7.62c-.03.86.18,1.59.64,2.2.46.61,1.04,1.09,1.74,1.42.7.33,1.41.5,2.12.5.47,0,.87-.02,1.22-.07.35-.05.65-.12.9-.21.25-.09.46-.18.64-.27.18-.09.34-.18.48-.27.15-.09.28-.16.41-.21.08-.03.17-.04.28-.04.1,0,.18.05.23.13.08.11.14.21.17.3.03.09.05.19.05.3,0,.15-.19.34-.58.59-.39.25-.91.48-1.57.68-.66.2-1.4.3-2.2.3ZM478.08,426.19h7.21c.32,0,.57-.04.75-.11.18-.07.27-.31.27-.71,0-.53-.17-1.02-.5-1.46-.33-.44-.78-.8-1.34-1.08-.56-.27-1.21-.41-1.94-.41-.81,0-1.55.16-2.24.48-.69.32-1.23.77-1.63,1.34-.4.57-.6,1.22-.58,1.95Z"/>
    <path class="cls-1" d="M495.96,432.68c-.16,0-.29-.02-.39-.07s-.17-.13-.21-.24c-.04-.11-.06-.26-.06-.44v-10.09c0-.19.02-.34.06-.45.04-.1.11-.17.21-.21.1-.03.23-.05.41-.05.16,0,.29.02.4.05.1.03.18.1.23.21.05.11.07.25.07.45v1.02c.16-.27.32-.52.48-.75.16-.23.35-.42.58-.59.23-.17.5-.3.84-.4.33-.1.75-.15,1.25-.15.26,0,.5.02.71.07.22.05.42.11.61.19.19.08.34.17.47.27.13.1.23.19.29.29.06.1.1.19.1.29,0,.21-.09.39-.27.53-.18.15-.34.22-.48.22-.18,0-.31-.03-.4-.08-.09-.06-.18-.12-.28-.21-.1-.08-.24-.15-.44-.21-.19-.06-.49-.08-.9-.08-.24,0-.51.05-.8.16-.29.11-.57.26-.84.47-.27.21-.49.48-.67.82-.18.34-.27.74-.27,1.21v7.07c0,.18-.02.32-.06.42-.04.1-.11.18-.22.22-.11.04-.25.06-.45.06Z"/>
    <path class="cls-1" d="M509.79,419.17c-.24.08-.42.1-.54.05-.12-.05-.22-.19-.3-.44-.08-.23-.09-.4-.04-.53.06-.13.19-.23.4-.31l3.68-1.28c.23-.08.4-.09.53-.02.13.06.23.22.29.46.08.23.09.4.02.52-.06.12-.21.22-.44.3l-3.61,1.26ZM510.2,432.68c-.16,0-.29-.02-.4-.07-.11-.05-.18-.13-.22-.23-.04-.1-.06-.25-.06-.42v-10.12c0-.18.02-.32.06-.42.04-.1.11-.18.22-.22.1-.04.25-.06.42-.06s.31.02.41.07c.1.05.17.13.21.23.04.11.06.25.06.45v10.09c0,.18-.02.32-.06.42-.04.1-.11.18-.22.22-.11.04-.25.06-.42.06Z"/>
    <path class="cls-1" d="M529.12,432.65c-.23,0-.39-.06-.48-.17-.1-.11-.16-.32-.19-.63v-1.62c-.18.31-.46.65-.83,1.03-.38.38-.87.71-1.48.99-.61.28-1.34.42-2.19.42-.79,0-1.52-.15-2.19-.45-.67-.3-1.26-.71-1.75-1.25-.5-.53-.89-1.15-1.17-1.85-.28-.7-.42-1.46-.42-2.29s.14-1.53.42-2.21c.28-.69.68-1.29,1.19-1.82.51-.52,1.1-.94,1.77-1.23.67-.3,1.39-.45,2.17-.45s1.41.1,1.95.29c.54.19,1.02.46,1.43.8.41.34.79.73,1.13,1.19v-1.38c0-.32.05-.55.16-.69.1-.14.29-.21.54-.21.16,0,.29.03.38.08.09.06.15.15.19.28.04.13.06.31.06.53v9.83c0,.19-.02.35-.06.47s-.11.21-.21.25c-.1.05-.23.07-.39.07ZM524.21,431.42c.77,0,1.48-.2,2.11-.59.63-.4,1.13-.93,1.5-1.61.37-.68.56-1.45.56-2.32,0-.92-.19-1.72-.58-2.4-.39-.68-.9-1.21-1.54-1.59-.64-.38-1.34-.57-2.09-.57-.89,0-1.66.2-2.32.61-.66.4-1.18.95-1.55,1.63-.37.69-.56,1.47-.56,2.36s.19,1.62.56,2.3c.37.68.9,1.21,1.57,1.6s1.46.58,2.35.58Z"/>
  </g>
  <g>
    <path class="cls-1" d="M384.74,148.75l-31.81-18.36c-.64-.37-1.44-.26-1.96.26l-35.1,35.31c-1.16,1.17-.05,3.12,1.55,2.72l66.91-16.95c1.41-.36,1.67-2.25.41-2.98Z"/>
    <path class="cls-1" d="M387.16,156.17l.21,9.8c.02.75-.46,1.42-1.15,1.61l-67.74,18.41c-.9.25-1.81-.41-1.91-1.38l-1.17-10.64c-.09-.81.41-1.57,1.17-1.76l68.7-17.57c.96-.24,1.88.5,1.9,1.54Z"/>
    <path class="cls-1" d="M387.17,173.18l.21,9.8c.02.75-.45,1.42-1.13,1.61l-66.36,18.41c-.89.25-1.77-.41-1.88-1.38l-1.15-10.64c-.09-.81.4-1.57,1.14-1.76l67.29-17.57c.94-.24,1.84.5,1.86,1.54Z"/>
  </g>
  <g>
    <path class="cls-1" d="M169.44,266.66h10.43s.32-.43.32-.43c.54-.65.81-1.51.81-2.58v-7.41c0-1.18-.38-2.09-1.13-2.74-.75-.65-1.67-.97-2.74-.97h-81.47c-2.58,0-3.87,1.2-3.87,3.59v6.85c0,2.5,1.29,3.75,3.87,3.75h66.31l-66.27,85.77,6.62,6.6-11.77.02c-.18.28-.31.55-.37.81-.11.48-.16.94-.16,1.37v7.25c0,1.08.38,1.96,1.13,2.66.75.7,1.67,1.05,2.74,1.05h83.57c1.07,0,1.96-.38,2.66-1.14.7-.76,1.05-1.63,1.05-2.61v-6.53c0-1.31-.35-2.28-1.05-2.94-.7-.65-1.59-.98-2.66-.98h-67.76l65.65-85.5-5.9-5.89Z"/>
    <path class="cls-1" d="M300.02,368.38c-.11-.21-.22-.43-.32-.64l-46.46-112.29c-.22-.54-.59-1.15-1.13-1.86-.54-.7-1.51-1.05-2.9-1.05h-4.68c-1.51,0-2.5.35-2.99,1.05-.48.7-.83,1.32-1.05,1.86-.32.75-.92,2.18-1.77,4.28-.86,2.1-2.23,5.38-4.11,9.84-1.88,4.46-4.57,10.87-8.07,19.2-3.5,8.34-7.91,18.88-13.23,31.62-.94,2.24-1.92,4.61-2.94,7.04l4.97,4.98h-7.04c-4.26,10.24-9.12,21.94-14.6,35.17-.11.22-.16.43-.16.64-.11.54-.16,1.02-.16,1.45,0,1.72,1.13,2.58,3.39,2.58h6.94c2.04,0,3.55-1.07,4.52-3.23l9.03-22.91h58.73l9.36,23.07c.75,2.05,2.2,3.07,4.36,3.07h6.94c2.36,0,3.55-.86,3.55-2.58,0-.21-.06-.64-.16-1.29ZM223.06,332.4l23.72-59.05,23.55,59.05h-47.27Z"/>
    <rect class="cls-1" x="337.04" y="262.38" width="7.67" height="4.28"/>
    <path class="cls-1" d="M411.03,252.54h-76.63c-2.37,0-3.55,1.24-3.55,3.71v4.28l6.13,6.14h-6.13s0,102.19,0,102.19c0,2.26,1.18,3.39,3.55,3.39h6.61c2.47,0,3.71-1.13,3.71-3.39v-46.47h52.76c1.18,0,2.07-.38,2.66-1.13.59-.75.89-1.61.89-2.58v-6.62c0-1.29-.35-2.23-1.05-2.82-.7-.59-1.53-.89-2.5-.89h-11.86c-4.68,0-9.52-.02-14.52-.08-5-.05-9.84-.08-14.52-.08h-11.86v-41.62h66.31c1.18,0,2.1-.38,2.74-1.13.65-.75.97-1.61.97-2.58v-6.62c0-2.47-1.24-3.71-3.71-3.71Z"/>
    <path class="cls-1" d="M612.26,367.73l-14.62-35.34h-7.01s4.96-4.96,4.96-4.96l-29.79-71.99c-.22-.54-.59-1.15-1.13-1.86-.54-.7-1.51-1.05-2.9-1.05h-4.68c-1.51,0-2.5.35-2.99,1.05-.48.7-.83,1.32-1.05,1.86-.32.75-.92,2.18-1.77,4.28-.86,2.1-2.23,5.38-4.11,9.84-1.88,4.46-4.57,10.87-8.07,19.2-3.5,8.34-7.91,18.88-13.23,31.62-5.32,12.75-11.86,28.48-19.6,47.19-.11.22-.16.43-.16.64-.11.54-.16,1.02-.16,1.45,0,1.72,1.13,2.58,3.39,2.58h6.94c2.04,0,3.55-1.07,4.52-3.23l9.03-22.91h58.73l9.36,23.07c.75,2.05,2.2,3.07,4.36,3.07h6.94c2.36,0,3.55-.86,3.55-2.58,0-.21-.06-.64-.16-1.29-.11-.21-.22-.43-.32-.64ZM535.63,332.4l23.72-59.05,23.55,59.05h-47.27Z"/>
    <path class="cls-1" d="M524.3,253.42c-.75-.59-1.61-.89-2.58-.89h-82.93c-2.48,0-3.71,1.19-3.71,3.55v6.61c0,2.58,1.24,3.87,3.71,3.87h34.53v102.13c0,1.08.35,1.94,1.05,2.58.7.65,1.59.97,2.66.97h6.61c1.18,0,2.1-.35,2.74-1.05.65-.7.97-1.53.97-2.5v-95.8l-6.29-6.31h6.29s0-.02,0-.02h34.36c1.29,0,2.26-.38,2.9-1.13.65-.75.97-1.67.97-2.74v-6.61c-.11-1.18-.54-2.07-1.29-2.66Z"/>
  </g>
</svg>